<svg version="1.2" xmlns="http://www.w3.org/2000/svg" viewBox="0 0 55 10" width="55" height="10"><style>.a{fill:#00e0d0}.b{fill:none;stroke:#c2c2c2;stroke-miterlimit:100}</style><path fill-rule="evenodd" class="a" d="m5 0c2.8 0 5 2.2 5 5 0 2.8-2.2 5-5 5-2.8 0-5-2.2-5-5 0-2.8 2.2-5 5-5z"/><path fill-rule="evenodd" class="b" d="m20 0c2.8 0 5 2.2 5 5 0 2.8-2.2 5-5 5-2.8 0-5-2.2-5-5 0-2.8 2.2-5 5-5z"/><path fill-rule="evenodd" class="b" d="m35 0c2.8 0 5 2.2 5 5 0 2.8-2.2 5-5 5-2.8 0-5-2.2-5-5 0-2.8 2.2-5 5-5z"/><path fill-rule="evenodd" class="b" d="m50 0c2.8 0 5 2.2 5 5 0 2.8-2.2 5-5 5-2.8 0-5-2.2-5-5 0-2.8 2.2-5 5-5z"/></svg>